inDegrees=yes
name=ik_lifting_orientations
DataType=double
version=3
OpenSimVersion=4.5-2024-01-10-34fd6af
endheader
time	pelvis_tilt	pelvis_list	pelvis_rotation	pelvis_tx	pelvis_ty	pelvis_tz	hip_flexion_r	hip_adduction_r	hip_rotation_r	knee_angle_r	knee_angle_r_beta	ankle_angle_r	subtalar_angle_r	mtp_angle_r	hip_flexion_l	hip_adduction_l	hip_rotation_l	knee_angle_l	knee_angle_l_beta	ankle_angle_l	subtalar_angle_l	mtp_angle_l	lumbar_extension	lumbar_bending	lumbar_rotation	arm_flex_r	arm_add_r	arm_rot_r	elbow_flex_r	pro_sup_r	wrist_flex_r	wrist_dev_r	arm_flex_l	arm_add_l	arm_rot_l	elbow_flex_l	pro_sup_l	wrist_flex_l	wrist_dev_l
1.46	-0.69595850923622	-0.8374115504042823	-83.3530721899907	0	0.9399999998679526	0	45.03365310078757	-10.6522602675257	0	59.8960929252257	1.04538403062567	-5.241260625212537	0	0	45.03365310078757	-10.6522602675257	0	59.8960929252257	1.04538403062567	-5.241260625212537	0	0	-8.39689400765308	8.056648528894508	8.694282209531345	66.81619967789295	-31.08328229467253	55.7521372696382	141.8757341469793	2.374868124982578	0	0	0	-10.61883349347094	0	87.65785337041616	2.374868124982578	0	0
1.47	-0.802688468796674	-0.9432945840707386	-84.23582126816936	0	0.9399999998679526	0	45.03350432796717	-10.64518151700695	0	59.89654611384244	1.045391940259165	-5.238105090113797	0	0	45.03350432796717	-10.64518151700695	0	59.89654611384244	1.045391940259165	-5.238105090113797	0	0	-8.027784533816583	7.601336419063482	8.656562596199485	67.47530000002666	-27.05926998921274	56.31356198131071	142.2927411784175	2.366855345696587	0	0	0	-10.6305434133136	0	87.66575509168577	2.366855345696587	0	0
1.48	-0.895771861014962	-1.044795901137547	-85.37765416012597	0	0.9399999998679526	0	45.03330663266965	-10.63591631073707	0	59.89715024083309	1.045402484264252	-5.233995239026671	0	0	45.03330663266965	-10.63591631073707	0	59.89715024083309	1.045402484264252	-5.233995239026671	0	0	-7.698932587884793	7.134881421297902	8.873135193656394	68.11011225432085	-22.92663632453661	56.6407421942477	141.5401098008139	2.356179467758415	0	0	0	-10.64617366761647	0	87.67628300308972	2.356179467758415	0	0
1.49	-0.9921442676349572	-1.138479421026933	-86.43796870448568	0	0.9399999998679526	0	45.03315155828106	-10.62868449779207	0	59.89762374012681	1.045410748385933	-5.230792816006295	0	0	45.03315155828106	-10.62868449779207	0	59.89762374012681	1.045410748385933	-5.230792816006295	0	0	-7.424166668303954	6.719310857412084	9.251949152072969	68.68265121443719	-19.24134053299602	56.72036769684875	141.4646921411847	2.34779838299805	0	0	0	-10.65845082964563	0	87.68454792744954	2.34779838299805	0	0
1.5	-1.082688958404545	-1.224696987703032	-87.50448612261665	0	0.9399999998679526	0	45.0331364530157	-10.62768186980322	0	59.89766035182031	1.04541138738053	-5.230312682024683	0	0	45.0331364530157	-10.62768186980322	0	59.89766035182031	1.04541138738053	-5.230312682024683	0	0	-7.086357522567215	6.30264351436644	9.330699888985416	69.26182692063527	-15.11352552470109	56.97425957750707	140.4135647788152	2.347053983952908	0	0	0	-10.65946427000052	0	87.6852820031977	2.347053983952908	0	0
1.51	-1.170224051103539	-1.321061372986879	-88.51467013111012	0	0.9399999998679526	0	45.03311969595106	-10.62657074806758	0	59.89770096570869	1.045412096226604	-5.229780848048926	0	0	45.03311969595106	-10.62657074806758	0	59.89770096570869	1.045412096226604	-5.229780848048926	0	0	-6.724188240215484	5.870149168013094	9.440452773375187	69.81837416474617	-11.06724278236483	57.05472646799958	138.9194012539138	2.346228106114326	0	0	0	-10.66058868593226	0	87.6860964278048	2.346228106114326	0	0
1.52	-1.249175650409357	-1.366842264678804	-89.32167416153349	0	0.9399999998679526	0	45.03310757692677	-10.62576829825189	0	59.89773034893169	1.04541260906059	-5.229396960144464	0	0	45.03310757692677	-10.62576829825189	0	59.89773034893169	1.04541260906059	-5.229396960144464	0	0	-6.336182226579209	5.459405717681586	9.771862686976226	70.44422873113534	-7.641878761334352	57.0466211039681	137.5180896366481	2.345630677041364	0	0	0	-10.66140220740786	0	87.68668557177666	2.345630677041364	0	0
1.53	-1.316081135638363	-1.425170997031501	-90.09755208091522	0	0.9399999998679526	0	45.03309501367865	-10.62493718856038	0	59.89776081138471	1.045413140730693	-5.228999515970024	0	0	45.03309501367865	-10.62493718856038	0	59.89776081138471	1.045413140730693	-5.228999515970024	0	0	-6.009676716934087	5.094303245435714	10.00794012007754	71.06394782746482	-4.295960423106067	56.97781332370057	136.2542915175438	2.34501128177282	0	0	0	-10.66224569546763	0	87.68729637732656	2.34501128177282	0	0
